<svg width="17" height="24" viewBox="0 0 17 24" fill="none" xmlns="http://www.w3.org/2000/svg">
<path d="M16.2088 20.8072H0.00028385V23.5H16.2088V20.8072ZM15.9402 10.0381C15.5246 9.6223 14.8504 9.6223 14.4351 10.0381L9.15553 15.3179V1.56487C9.15553 0.976449 8.67827 0.5 8.09066 0.5C7.50256 0.5 7.02611 0.976611 7.02611 1.56503V15.3181L1.81764 10.1098C1.40188 9.6937 0.727939 9.6937 0.312183 10.1098C-0.104061 10.5255 -0.104061 11.1996 0.312183 11.6156L7.33785 18.6411C7.36219 18.6661 7.38881 18.6896 7.41591 18.7121C7.42824 18.7222 7.44106 18.7305 7.45388 18.7407C7.46913 18.7513 7.48406 18.7638 7.49916 18.7741C7.5149 18.7844 7.53031 18.7926 7.54557 18.8024C7.55985 18.8111 7.5738 18.8194 7.58857 18.8272C7.6048 18.8363 7.62086 18.8434 7.63693 18.8511C7.65267 18.8584 7.66776 18.8658 7.68285 18.8725C7.69876 18.879 7.71466 18.8842 7.73073 18.8895C7.7476 18.8957 7.76432 18.9022 7.78136 18.9072C7.79775 18.9121 7.81333 18.9156 7.82955 18.9197C7.84708 18.9234 7.86428 18.9291 7.88213 18.9324C7.90079 18.9358 7.91962 18.9377 7.93828 18.9411C7.95402 18.9436 7.96944 18.9463 7.98518 18.9479C8.05496 18.9548 8.12555 18.9548 8.19533 18.9479C8.21156 18.9463 8.22632 18.9436 8.24223 18.9411C8.26073 18.9377 8.28004 18.9364 8.29805 18.9324C8.31574 18.929 8.33326 18.9234 8.35063 18.9197C8.36718 18.9156 8.38292 18.9121 8.39915 18.9072C8.41619 18.9022 8.43274 18.8957 8.44978 18.8895C8.46633 18.8846 8.48142 18.8795 8.49765 18.8725C8.51323 18.8658 8.52865 18.8584 8.54358 18.8511C8.55981 18.8433 8.57587 18.8361 8.59177 18.8272C8.60654 18.8194 8.6205 18.8103 8.63461 18.8024C8.65052 18.7926 8.66594 18.7845 8.68119 18.7741C8.69677 18.7638 8.71186 18.7513 8.72679 18.7407C8.73912 18.7306 8.7521 18.7224 8.7646 18.7121C8.80501 18.679 8.84233 18.6412 8.87722 18.6034C8.88955 18.5925 8.90221 18.5822 8.91438 18.5705L15.9401 11.5445C16.356 11.1278 16.356 10.4537 15.9402 10.0381Z" fill="black"/>
</svg>
