<svg width="65" height="65" viewBox="0 0 65 65" fill="none" xmlns="http://www.w3.org/2000/svg">
<path fill-rule="evenodd" clip-rule="evenodd" d="M19.0175 62.7164C22.3746 62.9984 26.6433 63 32.5 63C38.3567 63 42.6254 62.9984 45.9825 62.7164C49.3159 62.4365 51.5658 61.891 53.4227 60.9078C56.6116 59.2194 59.2194 56.6116 60.9078 53.4227C61.891 51.5658 62.4365 49.3159 62.7164 45.9825C62.9984 42.6254 63 38.3567 63 32.5C63 26.6433 62.9984 22.3746 62.7164 19.0175C62.4365 15.6841 61.891 13.4342 60.9078 11.5773C59.2194 8.38843 56.6116 5.78062 53.4227 4.09222C51.5658 3.109 49.3159 2.56351 45.9825 2.28357C42.6254 2.00165 38.3567 2 32.5 2C26.6433 2 22.3746 2.00165 19.0175 2.28357C15.6841 2.56351 13.4342 3.109 11.5773 4.09222C8.38843 5.78062 5.78062 8.38843 4.09222 11.5773C3.109 13.4342 2.56351 15.6841 2.28357 19.0175C2.00165 22.3746 2 26.6433 2 32.5C2 38.3567 2.00165 42.6254 2.28357 45.9825C2.56351 49.3159 3.109 51.5658 4.09222 53.4227C5.78062 56.6116 8.38843 59.2194 11.5773 60.9078C13.4342 61.891 15.6841 62.4365 19.0175 62.7164ZM2.32469 10.6414C0 15.032 0 20.8546 0 32.5C0 44.1454 0 49.968 2.32469 54.3586C4.20069 57.9017 7.09825 60.7993 10.6414 62.6753C15.032 65 20.8546 65 32.5 65C44.1454 65 49.968 65 54.3586 62.6753C57.9017 60.7993 60.7993 57.9017 62.6753 54.3586C65 49.968 65 44.1454 65 32.5C65 20.8546 65 15.032 62.6753 10.6414C60.7993 7.09825 57.9017 4.20069 54.3586 2.32469C49.968 0 44.1454 0 32.5 0C20.8546 0 15.032 0 10.6414 2.32469C7.09825 4.20069 4.20069 7.09825 2.32469 10.6414Z" fill="#CDCDD3"/>
<path d="M40.7175 15.0069L36.4382 15C31.6306 15 28.5236 18.1876 28.5236 23.1213V26.8658H24.221C23.8492 26.8658 23.5481 27.1673 23.5481 27.5391V32.9644C23.5481 33.3362 23.8495 33.6373 24.221 33.6373H28.5236V47.3271C28.5236 47.6989 28.8247 48 29.1965 48H34.8103C35.1821 48 35.4832 47.6986 35.4832 47.3271V33.6373H40.514C40.8858 33.6373 41.1869 33.3362 41.1869 32.9644L41.1889 27.5391C41.1889 27.3605 41.1178 27.1896 40.9919 27.0632C40.8659 26.9369 40.6942 26.8658 40.5157 26.8658H35.4832V23.6916C35.4832 22.1659 35.8467 21.3914 37.8341 21.3914L40.7169 21.3904C41.0883 21.3904 41.3894 21.0889 41.3894 20.7175V15.6798C41.3894 15.3086 41.0887 15.0076 40.7175 15.0069Z" fill="#1877F2"/>
</svg>
