<svg width="187" height="44" viewBox="0 0 187 44" fill="none" xmlns="http://www.w3.org/2000/svg">
<path d="M54.6797 14.4141C54.3789 14.4141 54.1602 14.1953 54.1602 13.8945V9.90234H52.1367L54.9258 5.60938H53.0117L50.332 9.90234H48.2812V5.60938H46.5586V16H48.2812V11.4883H52.4375V14.2227C52.4375 15.3711 53.0664 16 54.1602 16H55.0352V14.4141H54.6797ZM63.5391 14.5781C63.1836 14.5781 63.0195 14.4141 63.0195 14.0586V10.3672C63.0195 8.67188 61.8164 7.66016 59.8477 7.66016C58.4258 7.66016 57.25 8.15234 56.293 9.05469L57.3047 10.1211C57.9609 9.4375 58.8359 9.02734 59.7656 9.02734C60.8047 9.02734 61.4883 9.46484 61.4883 10.1211C61.4883 10.75 60.8867 10.8594 59.6562 11.0234C58.0703 11.2695 56.1289 11.707 56.1289 13.7305C56.1289 15.1523 57.1953 16.1367 58.8086 16.1367C60.0117 16.1367 61.1055 15.5898 61.6797 14.7422C61.7891 15.6992 62.2539 16.0547 63.2656 16.0547C63.5391 16.0547 63.7578 16.0273 63.8398 16V14.5781H63.5391ZM59.082 14.7969C58.2344 14.7969 57.7422 14.3867 57.7422 13.6211C57.7422 12.5547 58.8086 12.3906 59.8477 12.2266C60.6406 12.0898 61.1328 12.0078 61.4336 11.8164V12.8828C61.4336 13.9219 60.3398 14.7969 59.082 14.7969ZM73.082 12.3359C73.0547 10.1758 71.5781 8.64453 69.5547 8.64453C68.2148 8.64453 67.1758 9.13672 66.5742 9.98438C66.7109 8.64453 67.3945 7.90625 68.8438 7.60547L71.2227 7.11328C72.1797 6.89453 72.7266 6.34766 72.8086 5.41797L72.8359 5.14453L71.2773 4.87109L71.2227 5.11719C71.168 5.44531 71.0039 5.60938 70.7031 5.66406L68.7617 6.07422C66.2461 6.59375 65.0977 8.26172 65.0977 11.4336C65.0977 14.3047 66.6562 16.1367 69.1172 16.1367C71.4688 16.1367 73.1094 14.5508 73.082 12.3359ZM69.1172 14.7422C67.75 14.7422 66.8203 13.7305 66.8203 12.2812C66.8203 10.832 67.7227 9.92969 69.1172 9.92969C70.5117 9.92969 71.3867 10.8594 71.3867 12.3633C71.3867 13.8125 70.5117 14.7422 69.1172 14.7422ZM75.0234 6.64844H76.8281V5.00781H75.0234V6.64844ZM75.1055 16H76.7461V7.79688H75.1055V16ZM85.0859 7.79688V11.0781H81.0938V7.79688H79.4531V16H81.0938V12.5547H85.0859V16H86.7266V7.79688H85.0859ZM90.3359 12.418H96.6523C96.707 12.2266 96.707 12.0898 96.707 11.8984C96.707 9.32812 95.1484 7.66016 92.7422 7.66016C90.3359 7.66016 88.6953 9.38281 88.6953 11.8984C88.6953 14.332 90.1719 16.1367 92.8789 16.1367C94.6016 16.1367 95.75 15.4805 96.4336 14.6602L95.3125 13.6758C94.8477 14.2773 94.082 14.7422 92.8789 14.7422C91.4297 14.7422 90.5273 13.8398 90.3359 12.418ZM92.7422 9.02734C93.9727 9.02734 94.8203 9.82031 95.0391 11.1602H90.3633C90.6094 9.84766 91.457 9.02734 92.7422 9.02734ZM104.746 7.79688H97.1992V9.24609H100.152V16H101.793V9.24609H104.746V7.79688ZM122.547 5.60938H119.922L116.777 13.9766L113.605 5.60938H110.953V16H112.621V7.57812L115.793 16H117.707L120.879 7.57812V16H122.547V5.60938ZM125.445 6.64844H127.25V5.00781H125.445V6.64844ZM125.527 16H127.168V7.79688H125.527V16ZM135.508 7.79688V11.0781H131.516V7.79688H129.875V16H131.516V12.5547H135.508V16H137.148V7.79688H135.508ZM139.773 6.64844H141.578V5.00781H139.773V6.64844ZM139.855 16H141.496V7.79688H139.855V16ZM147.703 16.1367C149.453 16.1367 150.902 15.2344 151.367 13.6758L149.809 13.1836C149.453 14.1406 148.688 14.7422 147.703 14.7422C146.199 14.7422 145.27 13.6211 145.27 11.8984C145.27 10.1758 146.199 9.05469 147.703 9.05469C148.715 9.05469 149.453 9.65625 149.809 10.6133L151.367 10.1211C150.902 8.5625 149.48 7.66016 147.703 7.66016C145.27 7.66016 143.602 9.38281 143.602 11.8984C143.602 14.4141 145.27 16.1367 147.703 16.1367ZM159.488 7.79688H151.941V9.24609H154.895V16H156.535V9.24609H159.488V7.79688ZM165.395 7.66016C164.219 7.66016 163.234 8.17969 162.578 9.08203L162.469 7.79688H161.047V18.7344H162.688V14.9062C163.316 15.6992 164.273 16.1367 165.395 16.1367C167.5 16.1367 168.977 14.4141 168.977 11.8984C168.977 9.32812 167.555 7.66016 165.395 7.66016ZM164.957 14.7422C163.508 14.7422 162.578 13.6211 162.578 11.8984C162.578 10.1758 163.508 9.05469 164.957 9.05469C166.406 9.05469 167.309 10.1758 167.309 11.8984C167.309 13.6211 166.406 14.7422 164.957 14.7422ZM171 6.64844H172.805V5.00781H171V6.64844ZM171.082 16H172.723V7.79688H171.082V16ZM180.844 11.7891C181.582 11.4609 182.02 10.832 182.02 9.92969C182.02 8.45312 180.898 7.79688 179.094 7.79688H175.43V16H179.395C181.172 16 182.238 15.2344 182.238 13.7578C182.238 12.7734 181.746 12.1172 180.844 11.7891ZM177.016 9.10938H179.176C179.941 9.10938 180.406 9.46484 180.406 10.1211C180.406 10.8867 180.023 11.1875 179.094 11.1875H177.016V9.10938ZM179.23 14.6875H177.016V12.418H179.121C180.051 12.418 180.598 12.8555 180.598 13.5664C180.598 14.2773 180.105 14.6875 179.23 14.6875ZM53.1484 26.6094L51.125 32.4883H50.2773L47.1875 26.6094H45.2461L48.5 32.4883H47.3789C46.7227 32.9805 46.3672 33.7461 46.3672 34.6211C46.3672 36.125 47.4062 37.1367 48.9648 37.1367C50.4141 37.1367 51.4531 36.2344 52.082 34.5117L54.9805 26.6094H53.1484ZM49.0195 35.6875C48.3633 35.6875 47.9531 35.25 47.9531 34.5938C47.9531 34.293 48.0625 34.0195 48.2539 33.8008H50.6602L50.4414 34.4297C50.1133 35.2773 49.7031 35.6875 49.0195 35.6875ZM63.5664 35.5508C63.3203 35.5508 63.1562 35.3867 63.1562 35.1406V32.1328H61.6523L63.7305 28.7969H61.9805L60.0391 32.0508H58.3711V26.0625H56.7305V37H58.3711V33.5547H61.543V35.4961C61.543 36.4805 62.1172 37 63.1289 37H63.8672V35.5508H63.5664ZM70.1289 28.6602C68.9531 28.6602 67.9688 29.1797 67.3125 30.082L67.2031 28.7969H65.7812V39.7344H67.4219V35.9062C68.0508 36.6992 69.0078 37.1367 70.1289 37.1367C72.2344 37.1367 73.7109 35.4141 73.7109 32.8984C73.7109 30.3281 72.2891 28.6602 70.1289 28.6602ZM69.6914 35.7422C68.2422 35.7422 67.3125 34.6211 67.3125 32.8984C67.3125 31.1758 68.2422 30.0547 69.6914 30.0547C71.1406 30.0547 72.043 31.1758 72.043 32.8984C72.043 34.6211 71.1406 35.7422 69.6914 35.7422ZM82.1875 35.5781C81.832 35.5781 81.668 35.4141 81.668 35.0586V31.3672C81.668 29.6719 80.4648 28.6602 78.4961 28.6602C77.0742 28.6602 75.8984 29.1523 74.9414 30.0547L75.9531 31.1211C76.6094 30.4375 77.4844 30.0273 78.4141 30.0273C79.4531 30.0273 80.1367 30.4648 80.1367 31.1211C80.1367 31.75 79.5352 31.8594 78.3047 32.0234C76.7188 32.2695 74.7773 32.707 74.7773 34.7305C74.7773 36.1523 75.8438 37.1367 77.457 37.1367C78.6602 37.1367 79.7539 36.5898 80.3281 35.7422C80.4375 36.6992 80.9023 37.0547 81.9141 37.0547C82.1875 37.0547 82.4062 37.0273 82.4883 37V35.5781H82.1875ZM77.7305 35.7969C76.8828 35.7969 76.3906 35.3867 76.3906 34.6211C76.3906 33.5547 77.457 33.3906 78.4961 33.2266C79.2891 33.0898 79.7812 33.0078 80.082 32.8164V33.8828C80.082 34.9219 78.9883 35.7969 77.7305 35.7969ZM82.9805 27.6484H84.7578V26.0078H82.9805V27.6484ZM85.7969 27.6484H87.5742V26.0078H85.7969V27.6484ZM84.457 37H86.0977V28.7969H84.457V37ZM94.4375 28.7969V32.0781H90.4453V28.7969H88.8047V37H90.4453V33.5547H94.4375V37H96.0781V28.7969H94.4375ZM104.254 28.7969L100.262 34.7031V28.7969H98.6484V37H100.344L104.336 31.0391V37H105.949V28.7969H104.254Z" fill="white"/>
<path d="M6.18164 31.5168C6.18164 31.5603 6.18164 31.6039 6.18164 31.6474H8.22766C8.22766 31.6039 8.22766 31.5168 8.22766 31.4733C8.22766 31.4297 8.22766 31.3862 8.22766 31.3427C8.22766 30.6461 8.40179 29.9932 8.40179 29.732C8.92418 25.7705 11.5361 24.1163 11.5796 24.0728C11.7538 24.2469 14.2787 26.2929 14.7575 29.7755C14.7575 30.0367 14.9316 30.6897 14.9316 31.3862C14.9316 31.4297 14.9316 31.4733 14.9316 31.5168C14.9316 31.5603 14.9316 31.6039 14.9316 31.6039H16.9777C16.9777 31.5603 16.9777 31.5168 16.9777 31.4733C16.9777 27.9907 15.4976 25.5529 14.1045 23.9857H14.1481C12.9292 21.4608 12.7115 18.5877 12.8421 15.8016C12.9727 13.1026 13.0597 9.62003 13.1468 6.92103C13.1903 5.44093 12.8421 4.09143 11.8408 2.91605C11.7973 2.82899 11.5796 2.65486 11.5361 2.61133C11.5361 2.61133 11.2749 2.82899 11.2314 2.91605C10.2301 4.09143 9.88189 5.48446 9.92542 6.92103C10.0125 9.62003 10.0996 13.1026 10.2301 15.8016C10.3607 18.5877 10.2301 21.4608 8.96771 23.9857C7.61821 25.5529 6.18164 27.9907 6.18164 31.5168Z" fill="white"/>
<path d="M23.2027 6.48535C23.1592 6.48535 23.1157 6.48535 23.0721 6.48535C22.9851 6.52888 22.898 6.57242 22.8109 6.61595C21.592 7.356 20.5473 8.27018 19.6766 9.40202C17.8918 11.6222 17.0647 14.1906 16.8035 17.0202C16.6729 18.5003 16.4552 20.0239 16.2811 21.504C16.194 22.2441 16.107 23.0276 16.0634 23.7677C16.8035 23.6371 17.3694 23.8983 17.8918 24.3771C18.5883 24.9866 18.6754 25.9878 18.1094 26.6844C17.8483 26.9891 17.4565 27.2503 17.0647 27.4679C17.0647 27.4679 17.0211 27.4679 17.0211 27.5115C17.2388 28.0774 17.4129 28.7304 17.5 29.4269C17.5435 29.4269 17.5871 29.3834 17.6306 29.3834C19.1978 28.8174 20.1555 27.7727 20.4167 26.0749C20.6343 24.6383 19.8507 23.1582 18.5012 22.3747C18.2836 22.2441 18.1965 22.1135 18.24 21.8523C18.4577 20.198 18.6754 18.5438 18.806 16.846C18.9366 15.3224 19.3719 13.8858 20.0684 12.4493C20.3731 11.7963 21.2873 10.4903 21.2873 10.4903C21.2873 10.4903 21.2873 25.1172 21.2873 32.3871H13.3644V34.1284H14.6704C14.2786 36.0438 13.3209 37.3062 12.5808 38.0463V32.0824C12.7114 31.6035 13.0597 30.994 14.1045 30.6893C14.148 30.6893 14.1915 30.6458 14.2786 30.6458C14.2351 30.3846 14.1915 30.1234 14.1915 29.9928C14.148 29.601 14.0609 29.2092 13.9739 28.8174C13.7997 28.861 13.6256 28.9045 13.5386 28.948C12.8856 29.2092 11.8408 30.0363 11.6231 30.254C11.4055 30.0799 10.3607 29.2092 9.70771 28.948C9.62064 28.9045 9.44651 28.861 9.27239 28.8174C9.18532 29.1657 9.09826 29.5575 9.05472 29.9928C9.05472 30.1234 9.01119 30.3411 8.96766 30.6458C9.01119 30.6458 9.05472 30.6893 9.14179 30.6893C10.1866 30.994 10.5348 31.6035 10.6654 32.0824V38.0898C9.92537 37.3498 8.96766 36.0873 8.57587 34.2154H9.92537V32.4741H1.91542V10.5339C1.91542 10.5339 2.8296 11.8398 3.13433 12.4928C3.78731 13.8858 4.22264 15.3224 4.39677 16.8896C4.52736 18.5438 4.74502 20.198 4.96269 21.8958C5.00622 22.157 4.91915 22.2876 4.70149 22.4182C3.35199 23.2018 2.56841 24.6819 2.78607 26.1184C3.00373 27.7727 4.00497 28.861 5.57214 29.4269C5.61567 29.4269 5.6592 29.4704 5.70273 29.4704C5.83333 28.7739 5.96393 28.1644 6.18159 27.555C6.18159 27.555 6.18159 27.555 6.13806 27.555C5.74627 27.3373 5.35448 27.1197 5.09328 26.7714C4.52736 26.0749 4.61443 25.0737 5.31094 24.4642C5.7898 24.0289 6.39925 23.7242 7.1393 23.8547C7.05224 23.0712 7.0087 22.3311 6.92164 21.5911C6.74751 20.111 6.52985 18.5873 6.39925 17.1072C6.18159 14.2776 5.31094 11.7092 3.52612 9.48908C2.65547 8.35724 1.6107 7.44306 0.391791 6.70301C0.304726 6.65948 0.217662 6.61595 0.130597 6.57242C0.0870647 6.57242 0.0435323 6.57242 0 6.57242V34.259H6.44278C7.35696 38.8299 11.5796 40.963 11.5796 40.963C11.5796 40.963 15.8022 38.9605 16.8035 34.2154H23.2027V6.48535Z" fill="white"/>
<path d="M35.0001 0H33.2588V43.5759H35.0001V0Z" fill="white"/>
</svg>
