<svg width="187" height="44" viewBox="0 0 187 44" fill="none" xmlns="http://www.w3.org/2000/svg">
<path d="M54.6797 14.4141C54.3516 14.4141 54.1602 14.1953 54.1602 13.8945V9.90234H52.1367L54.9258 5.60938H52.9844L50.3594 9.90234H48.2812V5.60938H46.5586V16H48.2812V11.4609H52.4375V14.2227C52.4375 15.3711 53.0664 16 54.1602 16H55.0078V14.4141H54.6797ZM63.5391 14.5781C63.1836 14.5781 63.0195 14.4141 63.0195 14.0586V10.3672C63.0195 8.67188 61.8164 7.66016 59.8477 7.66016C58.4258 7.66016 57.25 8.15234 56.293 9.05469L57.3047 10.1211C57.9609 9.4375 58.8359 9.02734 59.7656 9.02734C60.8047 9.02734 61.4883 9.46484 61.4883 10.1211C61.4883 10.75 60.8867 10.8594 59.6562 11.0234C58.043 11.2695 56.1289 11.707 56.1289 13.7031C56.1289 15.1523 57.2227 16.1367 58.8086 16.1367C60.0117 16.1367 61.1055 15.5898 61.6797 14.7695C61.7891 15.6992 62.2539 16.0547 63.2656 16.0547C63.5391 16.0547 63.7578 16.0273 63.8398 16V14.5781H63.5391ZM59.082 14.7969C58.2344 14.7969 57.7422 14.3867 57.7422 13.6211C57.7422 12.5547 58.8086 12.3906 59.8477 12.2266C60.6406 12.0898 61.1328 12.0078 61.4336 11.8164V12.8828C61.4336 13.9219 60.3398 14.7969 59.082 14.7969ZM73.082 12.3359C73.082 10.1758 71.6055 8.64453 69.5547 8.64453C68.2422 8.64453 67.1758 9.10938 66.5742 9.95703C66.7109 8.61719 67.4219 7.90625 68.8164 7.60547L71.2227 7.11328C72.1797 6.86719 72.7266 6.34766 72.8086 5.41797L72.8359 5.17188L71.2773 4.87109L71.2227 5.11719C71.168 5.44531 71.0039 5.60938 70.7031 5.66406L68.7617 6.07422C66.2461 6.62109 65.0977 8.26172 65.0977 11.4336C65.0977 14.3047 66.6562 16.1367 69.1172 16.1367C71.4688 16.1367 73.1094 14.5508 73.082 12.3359ZM69.1172 14.7422C67.7773 14.7422 66.8203 13.7305 66.8203 12.2812C66.8203 10.832 67.7227 9.92969 69.1172 9.92969C70.5117 9.92969 71.3867 10.8594 71.3867 12.3633C71.3867 13.7852 70.5117 14.7422 69.1172 14.7422ZM75.0234 6.64844H76.8281V5.00781H75.0234V6.64844ZM75.1055 16H76.7461V7.79688H75.1055V16ZM85.0859 7.79688V11.0508H81.0938V7.79688H79.4531V16H81.0938V12.582H85.0859V16H86.7266V7.79688H85.0859ZM90.3359 12.418H96.6523C96.707 12.2266 96.707 12.0898 96.707 11.8984C96.707 9.32812 95.1484 7.66016 92.7695 7.66016C90.3359 7.66016 88.6953 9.38281 88.6953 11.8984C88.6953 14.332 90.1719 16.1367 92.9062 16.1367C94.6289 16.1367 95.75 15.4805 96.4336 14.6602L95.3125 13.6758C94.8477 14.2773 94.082 14.7422 92.8789 14.7422C91.4297 14.7422 90.5273 13.8398 90.3359 12.418ZM92.7695 9.02734C93.9727 9.02734 94.8203 9.82031 95.0391 11.1602H90.3633C90.6094 9.84766 91.457 9.02734 92.7695 9.02734ZM104.746 7.79688H97.1992V9.27344H100.152V16H101.793V9.27344H104.746V7.79688ZM122.547 5.60938H119.922L116.777 13.9766L113.605 5.60938H110.953V16H112.621V7.55078L115.82 16H117.707L120.879 7.57812V16H122.547V5.60938ZM125.445 6.64844H127.25V5.00781H125.445V6.64844ZM125.527 16H127.168V7.79688H125.527V16ZM135.508 7.79688V11.0508H131.516V7.79688H129.875V16H131.516V12.582H135.508V16H137.148V7.79688H135.508ZM139.773 6.64844H141.578V5.00781H139.773V6.64844ZM139.855 16H141.496V7.79688H139.855V16ZM147.703 16.1367C149.453 16.1367 150.902 15.2344 151.367 13.6758L149.809 13.1836C149.48 14.1406 148.715 14.7422 147.703 14.7422C146.199 14.7422 145.27 13.6211 145.27 11.8984C145.27 10.1758 146.199 9.05469 147.703 9.05469C148.715 9.05469 149.453 9.65625 149.809 10.6133L151.367 10.1211C150.902 8.5625 149.48 7.66016 147.703 7.66016C145.27 7.66016 143.602 9.38281 143.602 11.8984C143.602 14.4141 145.27 16.1367 147.703 16.1367ZM159.488 7.79688H151.941V9.27344H154.895V16H156.535V9.27344H159.488V7.79688ZM165.395 7.66016C164.219 7.66016 163.234 8.17969 162.578 9.10938L162.469 7.79688H161.047V18.7344H162.688V14.9062C163.316 15.6992 164.273 16.1367 165.395 16.1367C167.5 16.1367 168.977 14.4141 168.977 11.8984C168.977 9.32812 167.555 7.66016 165.395 7.66016ZM164.957 14.7422C163.508 14.7422 162.578 13.6211 162.578 11.8984C162.578 10.1758 163.508 9.05469 164.957 9.05469C166.379 9.05469 167.309 10.1758 167.309 11.8984C167.309 13.6211 166.379 14.7422 164.957 14.7422ZM171 6.64844H172.805V5.00781H171V6.64844ZM171.082 16H172.723V7.79688H171.082V16ZM180.844 11.7891C181.582 11.4609 182.02 10.832 182.02 9.92969C182.02 8.45312 180.898 7.79688 179.094 7.79688H175.43V16H179.395C181.172 16 182.238 15.2344 182.238 13.7852C182.238 12.7734 181.746 12.1172 180.844 11.7891ZM176.988 9.08203H179.176C179.941 9.08203 180.406 9.46484 180.406 10.1211C180.406 10.8867 179.996 11.1875 179.094 11.1875H176.988V9.08203ZM179.23 14.6875H176.988V12.418H179.148C180.051 12.418 180.598 12.8555 180.598 13.5664C180.598 14.25 180.078 14.6875 179.23 14.6875ZM53.1484 26.6094L51.125 32.4883H50.2773L47.1875 26.6094H45.2461L48.5 32.4883H47.3789C46.7227 32.9805 46.3672 33.7461 46.3672 34.6211C46.3672 36.125 47.4062 37.1367 48.9648 37.1367C50.4141 37.1367 51.4531 36.2617 52.082 34.5117L54.9805 26.6094H53.1484ZM49.0195 35.6875C48.3633 35.6875 47.9531 35.2773 47.9531 34.5938C47.9531 34.293 48.0625 34.0195 48.2539 33.8008H50.6602L50.4414 34.4297C50.1133 35.2773 49.7031 35.6875 49.0195 35.6875ZM63.5664 35.5508C63.3203 35.5508 63.1562 35.3867 63.1562 35.1406V32.1328H61.6523L63.7305 28.7969H61.9805L60.0391 32.0508H58.3711V26.0625H56.7305V37H58.3711V33.582H61.543V35.4688C61.543 36.4805 62.1172 37 63.1289 37H63.8672V35.5508H63.5664ZM70.1289 28.6602C68.9531 28.6602 67.9688 29.1797 67.3125 30.1094L67.2031 28.7969H65.7812V39.7344H67.4219V35.9062C68.0508 36.6992 69.0078 37.1367 70.1289 37.1367C72.2344 37.1367 73.7109 35.4141 73.7109 32.8984C73.7109 30.3281 72.2891 28.6602 70.1289 28.6602ZM69.6914 35.7422C68.2422 35.7422 67.3125 34.6211 67.3125 32.8984C67.3125 31.1758 68.2422 30.0547 69.6914 30.0547C71.1133 30.0547 72.043 31.1758 72.043 32.8984C72.043 34.6211 71.1133 35.7422 69.6914 35.7422ZM82.1602 35.5781C81.8047 35.5781 81.6406 35.4141 81.6406 35.0586V31.3672C81.6406 29.6719 80.4375 28.6602 78.4688 28.6602C77.0469 28.6602 75.8711 29.1523 74.9141 30.0547L75.9258 31.1211C76.582 30.4375 77.457 30.0273 78.3867 30.0273C79.4258 30.0273 80.1094 30.4648 80.1094 31.1211C80.1094 31.75 79.5078 31.8594 78.2773 32.0234C76.6641 32.2695 74.75 32.707 74.75 34.7031C74.75 36.1523 75.8438 37.1367 77.4297 37.1367C78.6328 37.1367 79.7266 36.5898 80.3008 35.7695C80.4102 36.6992 80.875 37.0547 81.8867 37.0547C82.1602 37.0547 82.3789 37.0273 82.4609 37V35.5781H82.1602ZM77.7031 35.7969C76.8555 35.7969 76.3633 35.3867 76.3633 34.6211C76.3633 33.5547 77.4297 33.3906 78.4688 33.2266C79.2617 33.0898 79.7539 33.0078 80.0547 32.8164V33.8828C80.0547 34.9219 78.9609 35.7969 77.7031 35.7969ZM82.9531 27.6484H84.7305V26.0078H82.9531V27.6484ZM85.7695 27.6484H87.5469V26.0078H85.7695V27.6484ZM84.4297 37H86.0703V28.7969H84.4297V37ZM94.4102 28.7969V32.0508H90.418V28.7969H88.7773V37H90.418V33.582H94.4102V37H96.0508V28.7969H94.4102ZM104.227 28.7969L100.234 34.7031V28.7969H98.6211V37H100.289L104.309 31.0391V37H105.922V28.7969H104.227Z" fill="black"/>
<path d="M6.18164 31.4862C6.18164 31.5296 6.18164 31.5731 6.18164 31.6166H8.22766C8.22766 31.5731 8.22766 31.4862 8.22766 31.4427C8.22766 31.3992 8.22766 31.3557 8.22766 31.3122C8.22766 30.6164 8.40179 29.964 8.40179 29.7031C8.92418 25.7455 11.5361 24.0928 11.5797 24.0494C11.7538 24.2233 14.2787 26.2673 14.7575 29.7466C14.7575 30.0075 14.9316 30.6598 14.9316 31.3557C14.9316 31.3992 14.9316 31.4427 14.9316 31.4862C14.9316 31.5296 14.9316 31.5731 14.9316 31.5731H16.9777C16.9777 31.5296 16.9777 31.4862 16.9777 31.4427C16.9777 27.9635 15.4976 25.528 14.1045 23.9624H14.1481C12.9292 21.44 12.7115 18.5696 12.8421 15.7862C12.9727 13.0899 13.0598 9.61066 13.1468 6.91428C13.1903 5.43562 12.8421 4.08743 11.8408 2.91319C11.7973 2.82621 11.5797 2.65225 11.5361 2.60876C11.5361 2.60876 11.2749 2.82621 11.2314 2.91319C10.2301 4.08743 9.88189 5.47911 9.92542 6.91428C10.0125 9.61066 10.0996 13.0899 10.2301 15.7862C10.3607 18.5696 10.2301 21.44 8.96771 23.9624C7.61821 25.528 6.18164 27.9635 6.18164 31.4862Z" fill="black"/>
<path d="M23.2027 6.479C23.1592 6.479 23.1157 6.479 23.0721 6.479C22.9851 6.52249 22.898 6.56598 22.8109 6.60947C21.592 7.3488 20.5473 8.2621 19.6766 9.39284C17.8918 11.6108 17.0647 14.1767 16.8035 17.0036C16.6729 18.4823 16.4552 20.0044 16.2811 21.4831C16.194 22.2224 16.107 23.0052 16.0634 23.7445C16.8035 23.6141 17.3694 23.875 17.8918 24.3534C18.5883 24.9623 18.6754 25.9625 18.1094 26.6584C17.8483 26.9628 17.4565 27.2238 17.0647 27.4412C17.0647 27.4412 17.0211 27.4412 17.0211 27.4847C17.2388 28.0501 17.4129 28.7024 17.5 29.3983C17.5435 29.3983 17.5871 29.3548 17.6306 29.3548C19.1978 28.7894 20.1555 27.7456 20.4167 26.0495C20.6343 24.6144 19.8507 23.1357 18.5012 22.3529C18.2836 22.2224 18.1965 22.0919 18.24 21.831C18.4577 20.1784 18.6754 18.5257 18.806 16.8296C18.9366 15.3075 19.3719 13.8723 20.0684 12.4371C20.3731 11.7848 21.2873 10.4801 21.2873 10.4801C21.2873 10.4801 21.2873 25.0927 21.2873 32.3556H13.3644V34.0952H14.6704C14.2786 36.0087 13.3209 37.27 12.5808 38.0093V32.0511C12.7114 31.5728 13.0597 30.9639 14.1045 30.6595C14.148 30.6595 14.1915 30.616 14.2786 30.616C14.2351 30.355 14.1915 30.0941 14.1915 29.9636C14.148 29.5722 14.0609 29.1808 13.9739 28.7894C13.7997 28.8329 13.6256 28.8764 13.5386 28.9199C12.8856 29.1808 11.8408 30.0071 11.6231 30.2246C11.4055 30.0506 10.3607 29.1808 9.70771 28.9199C9.62064 28.8764 9.44651 28.8329 9.27238 28.7894C9.18532 29.1373 9.09826 29.5287 9.05472 29.9636C9.05472 30.0941 9.01119 30.3115 8.96766 30.616C9.01119 30.616 9.05472 30.6595 9.14179 30.6595C10.1866 30.9639 10.5348 31.5728 10.6654 32.0511V38.0528C9.92537 37.3134 8.96766 36.0522 8.57587 34.1822H9.92537V32.4426H1.91542V10.5236C1.91542 10.5236 2.8296 11.8283 3.13433 12.4806C3.78731 13.8723 4.22264 15.3075 4.39676 16.8731C4.52736 18.5257 4.74502 20.1784 4.96268 21.8745C5.00622 22.1354 4.91915 22.2659 4.70149 22.3964C3.35199 23.1792 2.56841 24.6578 2.78607 26.093C3.00373 27.7456 4.00497 28.8329 5.57214 29.3983C5.61567 29.3983 5.6592 29.4417 5.70273 29.4417C5.83333 28.7459 5.96393 28.137 6.18159 27.5282C6.18159 27.5282 6.18159 27.5282 6.13806 27.5282C5.74627 27.3107 5.35448 27.0933 5.09328 26.7454C4.52736 26.0495 4.61443 25.0493 5.31094 24.4404C5.7898 24.0055 6.39925 23.7011 7.1393 23.8315C7.05224 23.0487 7.0087 22.3094 6.92164 21.57C6.74751 20.0914 6.52985 18.5692 6.39925 17.0906C6.18159 14.2637 5.31094 11.6978 3.52612 9.47982C2.65547 8.34908 1.6107 7.43578 0.391791 6.69645C0.304726 6.65296 0.217662 6.60947 0.130597 6.56598C0.0870647 6.56598 0.0435323 6.56598 0 6.56598V34.2256H6.44278C7.35696 38.7921 11.5796 40.9231 11.5796 40.9231C11.5796 40.9231 15.8022 38.9226 16.8035 34.1822H23.2027V6.479Z" fill="black"/>
<path d="M35.0001 0H33.2588V43.5335H35.0001V0Z" fill="black"/>
</svg>
