<svg width="65" height="65" viewBox="0 0 65 65" fill="none" xmlns="http://www.w3.org/2000/svg">
<path fill-rule="evenodd" clip-rule="evenodd" d="M19.0175 62.7164C22.3746 62.9984 26.6433 63 32.5 63C38.3567 63 42.6254 62.9984 45.9825 62.7164C49.3159 62.4365 51.5658 61.891 53.4227 60.9078C56.6116 59.2194 59.2194 56.6116 60.9078 53.4227C61.891 51.5658 62.4365 49.3159 62.7164 45.9825C62.9984 42.6254 63 38.3567 63 32.5C63 26.6433 62.9984 22.3746 62.7164 19.0175C62.4365 15.6841 61.891 13.4342 60.9078 11.5773C59.2194 8.38843 56.6116 5.78062 53.4227 4.09222C51.5658 3.109 49.3159 2.56351 45.9825 2.28357C42.6254 2.00165 38.3567 2 32.5 2C26.6433 2 22.3746 2.00165 19.0175 2.28357C15.6841 2.56351 13.4342 3.109 11.5773 4.09222C8.38843 5.78062 5.78062 8.38843 4.09222 11.5773C3.109 13.4342 2.56351 15.6841 2.28357 19.0175C2.00165 22.3746 2 26.6433 2 32.5C2 38.3567 2.00165 42.6254 2.28357 45.9825C2.56351 49.3159 3.109 51.5658 4.09222 53.4227C5.78062 56.6116 8.38843 59.2194 11.5773 60.9078C13.4342 61.891 15.6841 62.4365 19.0175 62.7164ZM2.32469 10.6414C0 15.032 0 20.8546 0 32.5C0 44.1454 0 49.968 2.32469 54.3586C4.20069 57.9017 7.09825 60.7993 10.6414 62.6753C15.032 65 20.8546 65 32.5 65C44.1454 65 49.968 65 54.3586 62.6753C57.9017 60.7993 60.7993 57.9017 62.6753 54.3586C65 49.968 65 44.1454 65 32.5C65 20.8546 65 15.032 62.6753 10.6414C60.7993 7.09825 57.9017 4.20069 54.3586 2.32469C49.968 0 44.1454 0 32.5 0C20.8546 0 15.032 0 10.6414 2.32469C7.09825 4.20069 4.20069 7.09825 2.32469 10.6414Z" fill="#CDCDD3"/>
<path d="M48.0727 20.7124L42.6489 45.9961C42.2398 47.7806 41.1727 48.2247 39.6562 47.384L31.3922 41.3645L27.4047 45.1555C26.9634 45.5917 26.5943 45.9565 25.7438 45.9565L26.3376 37.637L41.6541 23.9562C42.32 23.3693 41.5096 23.0441 40.619 23.631L21.684 35.4163L13.5324 32.8943C11.7592 32.3471 11.7271 31.1416 13.9014 30.3009L45.7861 18.1587C47.2623 17.6114 48.5541 18.4838 48.0727 20.7124Z" fill="#34ACE0"/>
</svg>
