<svg width="65" height="65" viewBox="0 0 65 65" fill="none" xmlns="http://www.w3.org/2000/svg">
<path fill-rule="evenodd" clip-rule="evenodd" d="M19.0175 62.7164C22.3746 62.9984 26.6433 63 32.5 63C38.3567 63 42.6254 62.9984 45.9825 62.7164C49.3159 62.4365 51.5658 61.891 53.4227 60.9078C56.6116 59.2194 59.2194 56.6116 60.9078 53.4227C61.891 51.5658 62.4365 49.3159 62.7164 45.9825C62.9984 42.6254 63 38.3567 63 32.5C63 26.6433 62.9984 22.3746 62.7164 19.0175C62.4365 15.6841 61.891 13.4342 60.9078 11.5773C59.2194 8.38843 56.6116 5.78062 53.4227 4.09222C51.5658 3.109 49.3159 2.56351 45.9825 2.28357C42.6254 2.00165 38.3567 2 32.5 2C26.6433 2 22.3746 2.00165 19.0175 2.28357C15.6841 2.56351 13.4342 3.109 11.5773 4.09222C8.38843 5.78062 5.78062 8.38843 4.09222 11.5773C3.109 13.4342 2.56351 15.6841 2.28357 19.0175C2.00165 22.3746 2 26.6433 2 32.5C2 38.3567 2.00165 42.6254 2.28357 45.9825C2.56351 49.3159 3.109 51.5658 4.09222 53.4227C5.78062 56.6116 8.38843 59.2194 11.5773 60.9078C13.4342 61.891 15.6841 62.4365 19.0175 62.7164ZM2.32469 10.6414C0 15.032 0 20.8546 0 32.5C0 44.1454 0 49.968 2.32469 54.3586C4.20069 57.9017 7.09825 60.7993 10.6414 62.6753C15.032 65 20.8546 65 32.5 65C44.1454 65 49.968 65 54.3586 62.6753C57.9017 60.7993 60.7993 57.9017 62.6753 54.3586C65 49.968 65 44.1454 65 32.5C65 20.8546 65 15.032 62.6753 10.6414C60.7993 7.09825 57.9017 4.20069 54.3586 2.32469C49.968 0 44.1454 0 32.5 0C20.8546 0 15.032 0 10.6414 2.32469C7.09825 4.20069 4.20069 7.09825 2.32469 10.6414Z" fill="#CDCDD3"/>
<path d="M23.6186 50.0662C23.6186 48.7664 23.4104 45.5739 23.4085 44.6282C23.4078 44.2121 23.1307 44.0911 22.7982 43.9823C20.7751 43.3209 19.1084 42.1632 17.9232 40.3301C16.8641 38.6923 16.3426 36.8692 16.1202 34.9468C15.6889 31.2202 15.7223 27.502 16.6015 23.8431C17.379 20.6071 19.2813 18.3674 22.4221 17.2087C26.1603 15.8294 30.0091 15.808 33.8971 15.9647C35.7824 16.0406 37.6417 16.2614 39.4532 16.7849C41.3823 17.3423 43.2852 17.9926 44.6524 19.6242C45.6285 20.7891 46.2141 22.1649 46.5939 23.6308C47.4568 26.9609 47.474 30.3381 47.1743 33.7456C47.0291 35.3948 46.843 37.0233 46.2633 38.5743C45.1545 41.5408 43.0181 43.274 40.0203 44.0474C36.5848 44.9335 33.1064 45.2733 29.576 45.1384C29.0871 45.1198 28.7982 45.373 28.5014 45.7064C26.6838 47.4858 23.7543 49.9372 23.6186 50.0662Z" fill="#6F3FAA"/>
<path d="M24.369 50.9651C24.1663 50.9651 23.9619 50.9255 23.7688 50.8441C23.219 50.6128 22.8635 50.0878 22.8635 49.5074C22.8635 48.859 22.8006 47.6293 22.7449 46.5444C22.7123 45.9092 22.6827 45.3297 22.6654 44.8768C20.3709 44.0825 18.5707 42.7437 17.31 40.8923C16.1927 39.2516 15.5139 37.3417 15.2349 35.0536C14.7262 30.8795 14.8973 27.1969 15.7582 23.7952C16.6854 20.132 19.0002 17.6283 22.6383 16.3539C25.3112 15.4176 28.1846 15 31.9554 15C32.8106 15 33.7465 15.0206 34.9008 15.0647C37.2182 15.1534 39.1283 15.4228 40.9123 15.9123C43.0523 16.4994 45.2808 17.2303 46.9434 19.1143C47.9901 20.3003 48.7389 21.7559 49.2324 23.5643C50.0415 26.5291 50.2433 29.7977 49.8677 33.8507C49.7162 35.4835 49.5128 37.2189 48.847 38.9104C47.5819 42.1242 45.0927 44.2063 41.449 45.0984C38.3942 45.8467 35.1993 46.226 31.9528 46.2261C31.4814 46.2261 31.0017 46.2181 30.5243 46.2023C30.5066 46.2201 30.4851 46.2422 30.4594 46.2697C30.4362 46.2945 30.4121 46.3183 30.3872 46.3415C28.8573 47.7635 26.5697 49.621 25.7087 50.3201C25.5404 50.4568 25.4251 50.5502 25.3801 50.5882C25.0975 50.8355 24.7359 50.9651 24.369 50.9651ZM31.955 17.9154C28.5495 17.9154 25.9921 18.2792 23.6627 19.0952C20.9937 20.0302 19.3649 21.7946 18.683 24.4888C17.9093 27.546 17.7598 30.8899 18.2255 34.7117C18.4482 36.5381 18.971 38.035 19.8242 39.2876C20.7846 40.6978 22.1483 41.6619 23.9934 42.2346C25.3696 42.6619 25.6599 43.5636 25.661 44.2449C25.6618 44.6267 25.7059 45.488 25.7526 46.3999C25.7535 46.4187 25.7546 46.4377 25.7556 46.4565C26.5999 45.75 27.5274 44.9555 28.2646 44.2724C28.5806 43.9373 29.2793 43.2412 30.4951 43.284C30.9815 43.3017 31.4719 43.3108 31.9524 43.3108C34.9499 43.3108 37.8963 42.9614 40.7098 42.2721C43.4206 41.6082 45.1118 40.2101 46.0323 37.8722C46.5619 36.527 46.7297 35.0791 46.8677 33.5901C47.2159 29.8342 47.0468 26.9718 46.3203 24.3088C45.9448 22.9333 45.3995 21.8535 44.6532 21.0079C43.5358 19.7417 41.8574 19.2018 40.0906 18.7171C38.5417 18.292 36.8546 18.0572 34.7812 17.9778C33.6678 17.9351 32.7695 17.9154 31.955 17.9154Z" fill="#6F3FAA"/>
<path d="M40.1501 36.9497C40.0228 38.0861 39.3986 38.7208 38.7756 39.3268C38.0721 40.0114 37.2347 40.418 36.2332 40.0174C35.464 39.7097 34.7096 39.3589 33.9691 38.9867C31.6437 37.8186 29.6035 36.2572 27.8438 34.3507C25.7593 32.0921 24.1292 29.5458 23.1703 26.6008C22.9196 25.831 23.051 25.1447 23.658 24.6169C24.216 24.1316 24.8086 23.6742 25.4349 23.2825C25.8867 23 26.4343 23.0279 26.8458 23.3947C27.9919 24.4157 28.9294 25.6093 29.5372 27.0261C29.7432 27.5065 29.6978 28.0129 29.2271 28.385C28.9967 28.567 28.7796 28.7657 28.5533 28.953C27.9304 29.4683 27.8335 29.8266 28.0828 30.5888C28.6495 32.322 29.8674 33.5219 31.3374 34.4889C31.8335 34.8152 32.413 35.0267 32.9739 35.239C33.4518 35.4198 33.8502 35.2208 34.1574 34.8309C34.3177 34.6275 34.4732 34.4203 34.6375 34.2206C35.1063 33.6511 35.9297 33.4628 36.5422 33.8723C37.6179 34.5911 38.6757 35.341 39.6966 36.1344C39.9539 36.3343 40.0438 36.7485 40.1501 36.9497Z" fill="#EFEFF3"/>
<path d="M42.1561 31.1843C41.7728 31.1843 41.4621 30.848 41.4621 30.4333C41.4621 25.2305 37.551 20.9979 32.744 20.9979C32.3608 20.9979 32.05 20.6616 32.05 20.2469C32.05 19.8322 32.3608 19.4958 32.744 19.4958C38.3164 19.4958 42.85 24.4024 42.85 30.4332C42.85 30.848 42.5395 31.1843 42.1561 31.1843Z" fill="#EFEFF3"/>
<path d="M39.3913 32.0837C38.9723 32.0837 38.6327 31.7444 38.6327 31.3259C38.6327 27.6218 35.6162 24.608 31.9085 24.608C31.4896 24.608 31.1499 24.2686 31.1499 23.8502C31.1499 23.4317 31.4896 23.0923 31.9085 23.0923C36.4528 23.0923 40.1499 26.7857 40.1499 31.3258C40.1499 31.7444 39.8104 32.0837 39.3913 32.0837Z" fill="#EFEFF3"/>
<path d="M35.8886 32.0837C35.5233 32.0837 35.2272 31.7879 35.2272 31.423C35.2272 29.5412 33.6948 28.0102 31.8113 28.0102C31.4461 28.0102 31.1499 27.7143 31.1499 27.3495C31.1499 26.9846 31.4461 26.6887 31.8113 26.6887C34.4241 26.6887 36.5499 28.8125 36.5499 31.4229C36.5499 31.7879 36.2539 32.0837 35.8886 32.0837Z" fill="#EFEFF3"/>
</svg>
