<svg width="116" height="121" viewBox="0 0 116 121" fill="none" xmlns="http://www.w3.org/2000/svg">
<path fill-rule="evenodd" clip-rule="evenodd" d="M57.9895 120.579H57.9895H57.9894C32.5809 120.579 18.4464 120.579 9.23373 110.98C0 101.382 0 86.6898 0 60.2784C0 33.867 0 19.1745 9.23373 9.59819C18.4464 0 32.5599 0 57.9895 0C83.419 0 97.5325 0 106.766 9.57633C116 19.1745 116 33.8451 116 60.2784C116 86.7117 116 101.382 106.766 110.98C97.5326 120.579 83.398 120.579 57.9895 120.579ZM69.7071 61.9598C70.9698 61.1779 70.9698 59.341 69.7071 58.5591L54.1662 48.935C52.8338 48.1099 51.1132 49.0682 51.1132 50.6354V69.8835C51.1132 71.4507 52.8338 72.409 54.1662 71.5839L69.7071 61.9598Z" fill="white"/>
</svg>
