<svg width="36" height="36" viewBox="0 0 36 36" fill="none" xmlns="http://www.w3.org/2000/svg">
<path d="M3.57194 3.57355L3.57355 3.57194C4.79714 2.34556 6.37314 1.68775 8.68919 1.34759C11.0392 1.00245 14.0222 1 17.9967 1C21.9712 1 24.9545 1.00243 27.3055 1.34683C29.6222 1.68621 31.2004 2.34254 32.4273 3.56622C33.6543 4.79331 34.3122 6.37149 34.6524 8.68833C34.9976 11.0391 35 14.0222 35 17.9967C35 21.9712 34.9976 24.9543 34.6524 27.3051C34.3122 29.622 33.6543 31.2002 32.4273 32.4273C31.2003 33.6542 29.6207 34.3122 27.3027 34.6524C24.9511 34.9976 21.9679 35 17.9967 35C14.0255 35 11.0424 34.9976 8.69159 34.6524C6.37446 34.3122 4.79699 33.6543 3.57355 32.4281L3.57275 32.4273C2.34581 31.2003 1.68782 29.6207 1.3476 27.3027C1.00244 24.9511 1 21.9679 1 17.9967C1 14.0255 1.00244 11.0424 1.3476 8.69159C1.68781 6.37446 2.34571 4.79699 3.57194 3.57355Z" stroke="white" stroke-width="2"/>
<path fill-rule="evenodd" clip-rule="evenodd" d="M10.0007 16C10.0007 13.1716 10.0007 11.7573 10.8794 10.8787C11.7581 10 13.1723 10 16.0007 10H20.0007C22.8292 10 24.2434 10 25.1221 10.8787C26.0007 11.7573 26.0007 13.1716 26.0007 16V20C26.0007 22.8284 26.0007 24.2427 25.1221 25.1213C24.2434 26 22.8292 26 20.0007 26H16.0007L13.0007 29V25.9238C12.0256 25.828 11.3693 25.6112 10.8794 25.1213C10.0007 24.2427 10.0007 22.8284 10.0007 20V16ZM14.0012 19C14.5535 19 15.0012 18.5522 15.0012 18C15.0012 17.4478 14.5535 17 14.0012 17C13.4489 17 13.0012 17.4478 13.0012 18C13.0012 18.5522 13.4489 19 14.0012 19ZM19.0005 18C19.0005 18.5522 18.5528 19 18.0005 19C17.4482 19 17.0005 18.5522 17.0005 18C17.0005 17.4478 17.4482 17 18.0005 17C18.5528 17 19.0005 17.4478 19.0005 18ZM22.0007 19C22.553 19 23.0007 18.5522 23.0007 18C23.0007 17.4478 22.553 17 22.0007 17C21.4484 17 21.0007 17.4478 21.0007 18C21.0007 18.5522 21.4484 19 22.0007 19Z" fill="white"/>
</svg>
