<svg width="36" height="36" viewBox="0 0 36 36" fill="none" xmlns="http://www.w3.org/2000/svg">
<path d="M3.57194 3.57355L3.57355 3.57194C4.79714 2.34556 6.37314 1.68775 8.68919 1.34759C11.0392 1.00245 14.0222 1 17.9967 1C21.9712 1 24.9545 1.00243 27.3055 1.34683C29.6222 1.68621 31.2004 2.34254 32.4273 3.56622C33.6543 4.79331 34.3122 6.37149 34.6524 8.68833C34.9976 11.0391 35 14.0222 35 17.9967C35 21.9712 34.9976 24.9543 34.6524 27.3051C34.3122 29.622 33.6543 31.2002 32.4273 32.4273C31.2003 33.6542 29.6207 34.3122 27.3027 34.6524C24.9511 34.9976 21.9679 35 17.9967 35C14.0255 35 11.0424 34.9976 8.69159 34.6524C6.37446 34.3122 4.79699 33.6543 3.57355 32.4281L3.57275 32.4273C2.34581 31.2003 1.68782 29.6207 1.3476 27.3027C1.00244 24.9511 1 21.9679 1 17.9967C1 14.0255 1.00244 11.0424 1.3476 8.69159C1.68781 6.37446 2.34571 4.79699 3.57194 3.57355Z" stroke="white" stroke-width="2"/>
<path fill-rule="evenodd" clip-rule="evenodd" d="M26.9933 6.23828C26.3362 6.23828 25.6914 6.50365 25.2278 6.96961C24.7605 7.43359 24.4932 8.0794 24.4932 8.73885C24.4932 9.39574 24.7616 10.0407 25.2278 10.5067C25.6905 10.9706 26.3362 11.2383 26.9933 11.2383C27.6524 11.2383 28.2949 10.9706 28.7608 10.5067C29.227 10.0407 29.4932 9.39461 29.4932 8.73885C29.4932 8.0794 29.227 7.43359 28.7608 6.96961C28.2969 6.50365 27.6524 6.23828 26.9933 6.23828Z" fill="white"/>
<circle cx="18" cy="18" r="7" stroke="white" stroke-width="2"/>
</svg>
